<svg id="main" xmlns="http://www.w3.org/2000/svg" enable-background="new 0 0 100 100" viewBox="0 0 100 100"><symbol id="a" viewBox="0 -24 360 24"><rect width="360" height="24" y="-24" fill="#010101" fill-opacity="0"/><rect width="40" height="16" x="312" y="-21" fill="none" opacity=".9"/><path fill="#fff" d="M266-19l8.8,10.9C274.5-7.8,271.1-5,266-5s-8.5-2.8-8.8-3.1L266-19L266-19L266-19L266-19L266-19z" opacity=".9"/><rect width="16" height="16" x="258" y="-20" fill="none"/><polygon fill="#fff" points="277 -19 291 -19 291 -5" opacity=".9"/><rect width="16" height="16" x="276" y="-20" fill="none"/><rect width="16" height="16" x="296" y="-20" fill="none"/><path fill="#fff" d="M306-6v1h-3v-1h-3v-13h9v13H306z" opacity=".9"/></symbol><path fill="#594454" d="M20.5,65.1c-0.3,0-0.5-0.2-0.5-0.5V63c0-0.3,0.2-0.5,0.5-0.5S21,62.7,21,63v1.6C21,64.8,20.7,65.1,20.5,65.1z   "/><path fill="#f1f1f2" d="M57.5,56.5h-15c0,1.7-1.3,3-3,3l0,7h21l0-7C58.8,59.5,57.5,58.2,57.5,56.5z"/><path fill="#d9d4d8" d="M42.5,58.5h15c0,1.7,0-0.3,0-2h-15C42.5,58.2,42.5,60.2,42.5,58.5z"/><path fill="#d9d4d8" d="M45 56.5h-2.5c0 1.7-1.3 3-3 3l0 7H42l0-7C43.6 59.5 45 58.2 45 56.5zM55 56.5h2.5c0 1.7 1.3 3 3 3l0 7h-2.5l0-7C56.3 59.5 55 58.2 55 56.5z"/><rect width="3" height="3" x="54.5" y="63.5" fill="#f1f1f2"/><rect width="7" height="26" x="72.5" y="64.5" fill="#f1f1f2" transform="rotate(-180 75.953 77.525)"/><rect width="2" height="26" x="77.5" y="64.5" fill="#fff"/><rect width="7" height="26" x="20.5" y="64.5" fill="#f1f1f2"/><rect width="2" height="26" x="25.5" y="64.5" fill="#fff"/><rect width="9" height="17" x="63.5" y="73.5" fill="#f1f1f2" transform="rotate(-180 67.953 82.025)"/><rect width="2" height="17" x="63.5" y="73.5" fill="#d9d4d8"/><rect width="2" height="17" x="70.5" y="73.5" fill="#d9d4d8"/><rect width="9" height="22" x="45.5" y="68.5" fill="#f1f1f2"/><rect width="9" height="2" x="45.5" y="68.5" fill="#d9d4d8"/><rect width="9" height="2" x="45.5" y="71.5" fill="#d9d4d8"/><rect width="2" height="22" x="45.5" y="68.5" fill="#d9d4d8"/><rect width="2" height="22" x="52.5" y="68.5" fill="#d9d4d8"/><path fill="#8e7f8b" d="M45.5,90.5V78c0-2.5,2-4.5,4.5-4.5h0c2.5,0,4.5,2,4.5,4.5v12.5"/><path fill="#f1f1f2" d="M47.9,44.5v-4c0-1.1,0.9-2,2-2h0c1.1,0,2,0.9,2,2v4"/><rect width="19" height="2" x="40.5" y="66.5" fill="#f1f1f2"/><rect width="2" height="2" x="57.5" y="66.5" fill="#fff"/><rect width="2" height="2" x="40.5" y="66.5" fill="#fff"/><polygon fill="#f1f1f2" points="40.5 68.5 40.5 67.5 36.5 67.5 36.5 71.5 42.5 71.5 42.5 68.5"/><polygon fill="#d9d4d8" points="40.5 68.5 40.5 67.5 36.5 67.5 36.5 69.5 40.5 69.5 40.5 70.5 42.5 70.5 42.5 68.5"/><rect width="2" height="1" x="38.5" y="67.5" fill="#d9d4d8"/><rect width="2" height="3" x="40.5" y="68.5" fill="#d9d4d8"/><polygon fill="#f1f1f2" points="59.5 68.5 59.5 67.5 63.5 67.5 63.5 71.5 57.5 71.5 57.5 68.5"/><polygon fill="#d9d4d8" points="59.5 67.5 59.5 68.5 57.5 68.5 57.5 70.5 59.5 70.5 59.5 69.5 63.5 69.5 63.5 67.5"/><rect width="2" height="3" x="57.5" y="68.5" fill="#d9d4d8"/><rect width="2" height="1" x="59.5" y="67.5" fill="#d9d4d8"/><rect width="9" height="4" x="27.5" y="69.5" fill="#f1f1f2"/><rect width="9" height="4" x="63.5" y="69.5" fill="#f1f1f2"/><rect width="2" height="4" x="34.5" y="69.5" fill="#d9d4d8"/><rect width="2" height="4" x="70.5" y="69.5" fill="#d9d4d8"/><rect width="2" height="4" x="27.5" y="69.5" fill="#d9d4d8"/><rect width="2" height="4" x="63.5" y="69.5" fill="#d9d4d8"/><path fill="#f1f1f2" d="M42.5,54v-2c0-4.1,3.4-7.5,7.5-7.5h0c4.1,0,7.5,3.4,7.5,7.5v2"/><path fill="#d9d4d8" d="M51,44.6c-0.3,0-0.7-0.1-1-0.1h0c-4.1,0-7.5,3.4-7.5,7.5v2h2v-2C44.5,48.2,47.3,45.1,51,44.6z"/><path fill="#fff" d="M50,44.5L50,44.5c-0.3,0-0.7,0-1,0.1c3.7,0.5,6.5,3.6,6.5,7.4v2h2v-2C57.5,47.9,54.1,44.5,50,44.5z"/><path fill="#f1f1f2" d="M36.4,67.6v-6c0-1.1,0.9-2,2-2h0c1.1,0,2,0.9,2,2v6H36.4z"/><rect width="3" height="22" x="42.5" y="68.5" fill="#f1f1f2"/><rect width="3" height="19" x="36.5" y="71.5" fill="#f1f1f2"/><rect width="3" height="19" x="39.5" y="71.5" fill="#f1f1f2"/><rect width="7" height="1.5" x="20.5" y="64.5" fill="#d9d4d8"/><rect width="7" height="1.5" x="20.5" y="67.5" fill="#d9d4d8"/><rect width="7" height="1.5" x="20.5" y="71.5" fill="#d9d4d8"/><rect width="7" height="1.5" x="20.5" y="80.5" fill="#d9d4d8"/><rect width="7" height="1.5" x="72.5" y="64.5" fill="#d9d4d8"/><rect width="7" height="1.5" x="72.5" y="67.5" fill="#d9d4d8"/><rect width="7" height="1.5" x="72.5" y="71.5" fill="#d9d4d8"/><rect width="7" height="1.5" x="72.5" y="80.5" fill="#d9d4d8"/><rect width="9" height="17" x="27.5" y="73.5" fill="#f1f1f2"/><rect width="9" height="2" x="27.5" y="73.5" fill="#d9d4d8"/><rect width="9" height="2" x="63.5" y="73.5" fill="#d9d4d8"/><rect width="2" height="17" x="27.5" y="73.5" fill="#d9d4d8"/><rect width="2" height="17" x="34.5" y="73.5" fill="#d9d4d8"/><rect width="3" height="19" x="60.5" y="71.5" fill="#f1f1f2" transform="rotate(-180 61.953 81.025)"/><rect width="19" height="2" x="40.5" y="54.5" fill="#f1f1f2"/><rect width="2" height="2" x="40.5" y="54.5" fill="#d9d4d8"/><rect width="2" height="2" x="57.5" y="54.5" fill="#fff"/><rect width="3" height="3" x="42.5" y="63.5" fill="#f1f1f2"/><rect width="1.5" height="3" x="44" y="63.5" fill="#fff"/><rect width="1.5" height="3" x="56" y="63.5" fill="#fff"/><rect width="3" height="22" x="54.5" y="68.5" fill="#f1f1f2"/><rect width="1.5" height="22" x="44" y="68.5" fill="#fff"/><rect width="1.5" height="19" x="38" y="71.5" fill="#fff"/><rect width="1.5" height="19" x="62" y="71.5" fill="#fff"/><rect width="1.5" height="22" x="56" y="68.5" fill="#fff"/><rect width="3" height="19" x="57.5" y="71.5" fill="#f1f1f2"/><path fill="#f1f1f2" d="M22.4 64.5V60c0-.8.7-1.5 1.5-1.5h0c.8 0 1.5.7 1.5 1.5v4.5H22.4zM59.4 67.5v-6c0-1.1.9-2 2-2h0c1.1 0 2 .9 2 2v6H59.4z"/><path fill="#fff" d="M38.4 59.5c-.3 0-.5.1-.8.1.7.3 1.3 1 1.3 1.9v6h1.5v-6C40.5 60.4 39.6 59.5 38.4 59.5zM61.4 59.5c-.3 0-.5.1-.8.1.7.3 1.3 1 1.3 1.9v6h1.5v-6C63.5 60.4 62.6 59.5 61.4 59.5z"/><path fill="#f1f1f2" d="M77.5,64.5V60c0-0.8-0.7-1.5-1.5-1.5l0,0c-0.8,0-1.5,0.7-1.5,1.5v4.5H77.5z"/><path fill="#726571" d="M51,73.6c-0.3-0.1-0.7-0.1-1-0.1c-2.5,0-4.5,2-4.5,4.5v12.5h2V78C47.5,75.9,48.9,74.1,51,73.6z"/><path fill="#726571" d="M49,73.6c0.3-0.1,0.7-0.1,1-0.1c2.5,0,4.5,2,4.5,4.5v12.5h-2V78C52.5,75.9,51,74.1,49,73.6z"/><path fill="#8e7f8b" d="M39.5 85.5V83c0-.8.7-1.5 1.5-1.5h0c.8 0 1.5.7 1.5 1.5v2.5H39.5zM39.5 78.5V76c0-.8.7-1.5 1.5-1.5h0c.8 0 1.5.7 1.5 1.5v2.5H39.5zM48.4 61.5V60c0-.8.7-1.5 1.5-1.5h0c.8 0 1.5.7 1.5 1.5v1.5"/><rect width="3" height="4" x="22.5" y="73.5" fill="#8e7f8b"/><path fill="#8e7f8b" d="M60.5 85.5V83c0-.8-.7-1.5-1.5-1.5h0c-.8 0-1.5.7-1.5 1.5v2.5H60.5zM60.5 78.5V76c0-.8-.7-1.5-1.5-1.5h0c-.8 0-1.5.7-1.5 1.5v2.5H60.5z"/><rect width="3" height="4" x="30.5" y="82.5" fill="#8e7f8b"/><rect width="3" height="4" x="30.5" y="75.5" fill="#8e7f8b"/><rect width="3" height="4" x="22.5" y="82.5" fill="#8e7f8b"/><rect width="3" height="4" x="74.5" y="73.5" fill="#8e7f8b"/><rect width="3" height="4" x="66.5" y="82.5" fill="#8e7f8b"/><rect width="3" height="4" x="66.5" y="75.5" fill="#8e7f8b"/><rect width="3" height="4" x="74.5" y="82.5" fill="#8e7f8b"/><path fill="#594454" d="M80.5 91h-61c-.3 0-.5-.2-.5-.5s.2-.5.5-.5h61c.3 0 .5.2.5.5S80.8 91 80.5 91zM54.5 87.5c-.3 0-.5-.2-.5-.5v-9c0-2.2-1.8-4-4-4s-4 1.8-4 4v9c0 .3-.2.5-.5.5S45 87.3 45 87v-9c0-2.8 2.2-5 5-5s5 2.2 5 5v9C55 87.3 54.7 87.5 54.5 87.5zM57.5 54.5c-.3 0-.5-.2-.5-.5v-2c0-3.9-3.1-7-7-7s-7 3.1-7 7v2c0 .3-.2.5-.5.5S42 54.3 42 54v-2c0-4.4 3.6-8 8-8s8 3.6 8 8v2C58 54.3 57.7 54.5 57.5 54.5zM42.5 86h-3c-.3 0-.5-.2-.5-.5V83c0-1.1.9-2 2-2s2 .9 2 2v2.5C43 85.8 42.7 86 42.5 86zM40 85h2v-2c0-.6-.4-1-1-1s-1 .4-1 1V85zM42.5 79h-3c-.3 0-.5-.2-.5-.5V76c0-1.1.9-2 2-2s2 .9 2 2v2.5C43 78.8 42.7 79 42.5 79zM40 78h2v-2c0-.6-.4-1-1-1s-1 .4-1 1V78zM40.5 68.1h-4c-.3 0-.5-.2-.5-.5v-6c0-1.4 1.1-2.5 2.5-2.5s2.5 1.1 2.5 2.5v6C41 67.8 40.7 68.1 40.5 68.1zM36.9 67.1h3v-5.5c0-.8-.7-1.5-1.5-1.5s-1.5.7-1.5 1.5V67.1zM51.4 62c-.3 0-.5-.2-.5-.5V60c0-.6-.4-1-1-1s-1 .4-1 1v1.5c0 .3-.2.5-.5.5s-.5-.2-.5-.5V60c0-1.1.9-2 2-2s2 .9 2 2v1.5C51.9 61.8 51.7 62 51.4 62z"/><path fill="#594454" d="M45.5 91h-3c-.3 0-.5-.2-.5-.5v-22c0-.3.2-.5.5-.5h3c.3 0 .5.2.5.5v22C46 90.8 45.7 91 45.5 91zM43 90h2V69h-2V90zM39.5 91h-3c-.3 0-.5-.2-.5-.5v-19c0-.3.2-.5.5-.5h3c.3 0 .5.2.5.5v19C40 90.8 39.7 91 39.5 91zM37 90h2V72h-2V90zM25.5 78h-3c-.3 0-.5-.2-.5-.5v-4c0-.3.2-.5.5-.5h3c.3 0 .5.2.5.5v4C26 77.8 25.7 78 25.5 78zM23 77h2v-3h-2V77z"/><path fill="#594454" d="M27.5,91h-7c-0.3,0-0.5-0.2-0.5-0.5v-26c0-0.3,0.2-0.5,0.5-0.5h7c0.3,0,0.5,0.2,0.5,0.5v26    C28,90.8,27.7,91,27.5,91z M21,90h6V65h-6V90z"/><path fill="#594454" d="M36.5 91h-9c-.3 0-.5-.2-.5-.5v-17c0-.3.2-.5.5-.5h9c.3 0 .5.2.5.5v17C37 90.8 36.7 91 36.5 91zM28 90h8V74h-8V90zM60.5 86h-3c-.3 0-.5-.2-.5-.5V83c0-1.1.9-2 2-2s2 .9 2 2v2.5C61 85.8 60.7 86 60.5 86zM58 85h2v-2c0-.6-.4-1-1-1s-1 .4-1 1V85zM60.5 79h-3c-.3 0-.5-.2-.5-.5V76c0-1.1.9-2 2-2s2 .9 2 2v2.5C61 78.8 60.7 79 60.5 79zM58 78h2v-2c0-.6-.4-1-1-1s-1 .4-1 1V78z"/><path fill="#594454" d="M63.5 91h-3c-.3 0-.5-.2-.5-.5v-19c0-.3.2-.5.5-.5h3c.3 0 .5.2.5.5v19C64 90.8 63.7 91 63.5 91zM61 90h2V72h-2V90zM59.5 69h-19c-.3 0-.5-.2-.5-.5v-2c0-.3.2-.5.5-.5h19c.3 0 .5.2.5.5v2C60 68.8 59.7 69 59.5 69zM41 68h18v-1H41V68zM59.5 57h-19c-.3 0-.5-.2-.5-.5v-2c0-.3.2-.5.5-.5h19c.3 0 .5.2.5.5v2C60 56.8 59.7 57 59.5 57zM41 56h18v-1H41V56z"/><path fill="#594454" d="M45.5 67h-3c-.3 0-.5-.2-.5-.5v-3c0-.3.2-.5.5-.5h3c.3 0 .5.2.5.5v3C46 66.8 45.7 67 45.5 67zM43 66h2v-2h-2V66zM52.5 64h-5c-.3 0-.5-.2-.5-.5v-2c0-.3.2-.5.5-.5h5c.3 0 .5.2.5.5v2C53 63.8 52.7 64 52.5 64zM48 63h4v-1h-4V63zM57.5 67h-3c-.3 0-.5-.2-.5-.5v-3c0-.3.2-.5.5-.5h3c.3 0 .5.2.5.5v3C58 66.8 57.7 67 57.5 67zM55 66h2v-2h-2V66zM57.5 91h-3c-.3 0-.5-.2-.5-.5v-22c0-.3.2-.5.5-.5h3c.3 0 .5.2.5.5v22C58 90.8 57.7 91 57.5 91zM55 90h2V69h-2V90z"/><path fill="#594454" d="M57.5 64h-15c-.3 0-.5-.2-.5-.5s.2-.5.5-.5h15c.3 0 .5.2.5.5S57.7 64 57.5 64zM56.5 62h-13c-.3 0-.5-.2-.5-.5s.2-.5.5-.5h13c.3 0 .5.2.5.5S56.7 62 56.5 62zM40.5 68h-5c-.3 0-.5-.2-.5-.5s.2-.5.5-.5h5c.3 0 .5.2.5.5S40.7 68 40.5 68zM52.5 72h-17c-.3 0-.5-.2-.5-.5s.2-.5.5-.5h17c.3 0 .5.2.5.5S52.7 72 52.5 72z"/><path fill="#594454" d="M64.5 72h-17c-.3 0-.5-.2-.5-.5s.2-.5.5-.5h17c.3 0 .5.2.5.5S64.7 72 64.5 72zM81.5 91h-63c-.3 0-.5-.2-.5-.5s.2-.5.5-.5h63c.3 0 .5.2.5.5S81.7 91 81.5 91zM42.5 72h-6c-.3 0-.5-.2-.5-.5v-4c0-.3.2-.5.5-.5h4c.3 0 .5.2.5.5V68h1.5c.3 0 .5.2.5.5v3C43 71.8 42.7 72 42.5 72zM37 71h5v-2h-1.5c-.3 0-.5-.2-.5-.5V68h-3V71zM64.5 68h-5c-.3 0-.5-.2-.5-.5s.2-.5.5-.5h5c.3 0 .5.2.5.5S64.7 68 64.5 68z"/><path fill="#594454" d="M63.5 72h-6c-.3 0-.5-.2-.5-.5v-3c0-.3.2-.5.5-.5H59v-.5c0-.3.2-.5.5-.5h4c.3 0 .5.2.5.5v4C64 71.8 63.7 72 63.5 72zM58 71h5v-3h-3v.5c0 .3-.2.5-.5.5H58V71zM38.5 67.5c-.3 0-.5-.2-.5-.5v-2.4c0-.3.2-.5.5-.5s.5.2.5.5V67C39 67.2 38.7 67.5 38.5 67.5zM38.5 59.6c-.3 0-.5-.2-.5-.5v-1.6c0-.3.2-.5.5-.5s.5.2.5.5v1.6C39 59.4 38.7 59.6 38.5 59.6zM41.4 62h-6c-.3 0-.5-.2-.5-.5s.2-.5.5-.5h6c.3 0 .5.2.5.5S41.7 62 41.4 62zM25.4 65h-3c-.3 0-.5-.2-.5-.5V60c0-1.1.9-2 2-2s2 .9 2 2v4.5C25.9 64.8 25.7 65 25.4 65zM22.9 64h2v-4c0-.6-.4-1-1-1s-1 .4-1 1V64z"/><path fill="#594454" d="M24 58.6c-.3 0-.5-.2-.5-.5v-1.6c0-.3.2-.5.5-.5s.5.2.5.5v1.6C24.5 58.4 24.2 58.6 24 58.6zM27.5 65.6c-.3 0-.5-.2-.5-.5v-1.6c0-.3.2-.5.5-.5s.5.2.5.5v1.6C28 65.4 27.7 65.6 27.5 65.6zM26.5 61h-5c-.3 0-.5-.2-.5-.5s.2-.5.5-.5h5c.3 0 .5.2.5.5S26.7 61 26.5 61zM28.5 68h-9c-.3 0-.5-.2-.5-.5s.2-.5.5-.5h9c.3 0 .5.2.5.5S28.7 68 28.5 68zM28.5 72h-9c-.3 0-.5-.2-.5-.5s.2-.5.5-.5h9c.3 0 .5.2.5.5S28.7 72 28.5 72zM25.5 76h-3c-.3 0-.5-.2-.5-.5s.2-.5.5-.5h3c.3 0 .5.2.5.5S25.7 76 25.5 76zM33.5 87h-3c-.3 0-.5-.2-.5-.5v-4c0-.3.2-.5.5-.5h3c.3 0 .5.2.5.5v4C34 86.8 33.7 87 33.5 87zM31 86h2v-3h-2V86z"/><path fill="#594454" d="M33 85h-2.5c-.3 0-.5-.2-.5-.5s.2-.5.5-.5H33c.3 0 .5.2.5.5S33.2 85 33 85zM33.5 80h-3c-.3 0-.5-.2-.5-.5v-4c0-.3.2-.5.5-.5h3c.3 0 .5.2.5.5v4C34 79.8 33.7 80 33.5 80zM31 79h2v-3h-2V79z"/><path fill="#594454" d="M33 78h-2.5c-.3 0-.5-.2-.5-.5s.2-.5.5-.5H33c.3 0 .5.2.5.5S33.2 78 33 78zM25.5 87h-3c-.3 0-.5-.2-.5-.5v-4c0-.3.2-.5.5-.5h3c.3 0 .5.2.5.5v4C26 86.8 25.7 87 25.5 87zM23 86h2v-3h-2V86zM36.5 74h-9c-.3 0-.5-.2-.5-.5v-4c0-.3.2-.5.5-.5h9c.3 0 .5.2.5.5v4C37 73.8 36.7 74 36.5 74zM28 73h8v-3h-8V73zM28.5 81h-9c-.3 0-.5-.2-.5-.5s.2-.5.5-.5h9c.3 0 .5.2.5.5S28.7 81 28.5 81zM58.4 52h-17c-.3 0-.5-.2-.5-.5s.2-.5.5-.5h17c.3 0 .5.2.5.5S58.7 52 58.4 52zM52 45c-.3 0-.5-.2-.5-.5v-4c0-.8-.7-1.5-1.5-1.5s-1.5.7-1.5 1.5v4c0 .3-.2.5-.5.5s-.5-.2-.5-.5v-4c0-1.4 1.1-2.5 2.5-2.5s2.5 1.1 2.5 2.5v4C52.5 44.8 52.2 45 52 45z"/><path fill="#594454" d="M50 44.5c-.3 0-.5-.2-.5-.5v-1.4c0-.3.2-.5.5-.5s.5.2.5.5V44C50.5 44.2 50.2 44.5 50 44.5zM44.5 54.5c-.3 0-.5-.2-.5-.5v-2c0-.3.2-.5.5-.5S45 51.7 45 52v2C45 54.3 44.7 54.5 44.5 54.5zM47.5 54.5c-.3 0-.5-.2-.5-.5v-2c0-.3.2-.5.5-.5S48 51.7 48 52v2C48 54.3 47.7 54.5 47.5 54.5zM44.5 61.5c-.3 0-.5-.2-.5-.5v-4c0-.3.2-.5.5-.5S45 56.7 45 57v4C45 61.3 44.7 61.5 44.5 61.5zM46.5 61.5c-.3 0-.5-.2-.5-.5v-4c0-.3.2-.5.5-.5S47 56.7 47 57v4C47 61.3 46.7 61.5 46.5 61.5zM53.5 61.5c-.3 0-.5-.2-.5-.5v-4c0-.3.2-.5.5-.5S54 56.7 54 57v4C54 61.3 53.7 61.5 53.5 61.5zM55.5 61.5c-.3 0-.5-.2-.5-.5v-4c0-.3.2-.5.5-.5S56 56.7 56 57v4C56 61.3 55.7 61.5 55.5 61.5zM52.5 54.5c-.3 0-.5-.2-.5-.5v-2c0-.3.2-.5.5-.5S53 51.7 53 52v2C53 54.3 52.7 54.5 52.5 54.5zM55.5 54.5c-.3 0-.5-.2-.5-.5v-2c0-.3.2-.5.5-.5S56 51.7 56 52v2C56 54.3 55.7 54.5 55.5 54.5zM50 38.6c-.3 0-.5-.2-.5-.5v-3.6c0-.3.2-.5.5-.5s.5.2.5.5v3.6C50.5 38.4 50.2 38.6 50 38.6zM52.9 41h-6c-.3 0-.5-.2-.5-.5S46.7 40 47 40h6c.3 0 .5.2.5.5S53.2 41 52.9 41zM63.5 68h-4c-.3 0-.5-.2-.5-.5v-6c0-1.4 1.1-2.5 2.5-2.5s2.5 1.1 2.5 2.5v6C64 67.8 63.7 68 63.5 68zM59.9 67h3v-5.5c0-.8-.7-1.5-1.5-1.5s-1.5.7-1.5 1.5V67z"/><path fill="#594454" d="M61.5 67.5c-.3 0-.5-.2-.5-.5v-2.4c0-.3.2-.5.5-.5s.5.2.5.5V67C62 67.2 61.7 67.5 61.5 67.5zM61.5 59.6c-.3 0-.5-.2-.5-.5v-1.6c0-.3.2-.5.5-.5s.5.2.5.5v1.6C62 59.4 61.7 59.6 61.5 59.6zM64.4 62h-6c-.3 0-.5-.2-.5-.5s.2-.5.5-.5h6c.3 0 .5.2.5.5S64.7 62 64.4 62zM49.9 53.5L49.9 53.5c-.3 0-.5-.2-.5-.5l0 0c0-.3.2-.5.5-.5h0c.3 0 .5.2.5.5l0 0C50.4 53.3 50.2 53.5 49.9 53.5zM39.5 60c-.3 0-.5-.2-.5-.5s.2-.5.5-.5c1.4 0 2.5-1.1 2.5-2.5 0-.3.2-.5.5-.5s.5.2.5.5C43 58.5 41.4 60 39.5 60z"/><path fill="#594454" d="M39.5 60h-.5c-.3 0-.5-.2-.5-.5s.2-.5.5-.5h.5c.3 0 .5.2.5.5S39.7 60 39.5 60zM60.5 60c-1.9 0-3.5-1.6-3.5-3.5 0-.3.2-.5.5-.5s.5.2.5.5c0 1.4 1.1 2.5 2.5 2.5.3 0 .5.2.5.5S60.7 60 60.5 60z"/><path fill="#594454" d="M61,60h-0.5c-0.3,0-0.5-0.2-0.5-0.5s0.2-0.5,0.5-0.5H61c0.3,0,0.5,0.2,0.5,0.5S61.2,60,61,60z"/><circle cx="24" cy="69.5" r=".5" fill="#594454"/><path fill="#594454" d="M77.5,78h-3c-0.3,0-0.5-0.2-0.5-0.5v-4c0-0.3,0.2-0.5,0.5-0.5h3c0.3,0,0.5,0.2,0.5,0.5v4    C78,77.8,77.7,78,77.5,78z M75,77h2v-3h-2V77z"/><path fill="#594454" d="M79.5,91h-7c-0.3,0-0.5-0.2-0.5-0.5v-26c0-0.3,0.2-0.5,0.5-0.5h7c0.3,0,0.5,0.2,0.5,0.5v26    C80,90.8,79.7,91,79.5,91z M73,90h6V65h-6V90z"/><path fill="#594454" d="M72.5 91h-9c-.3 0-.5-.2-.5-.5v-17c0-.3.2-.5.5-.5h9c.3 0 .5.2.5.5v17C73 90.8 72.7 91 72.5 91zM64 90h8V74h-8V90zM77.5 65h-3c-.3 0-.5-.2-.5-.5V60c0-1.1.9-2 2-2s2 .9 2 2v4.5C78 64.8 77.7 65 77.5 65zM75 64h2v-4c0-.6-.4-1-1-1s-1 .4-1 1V64z"/><path fill="#594454" d="M76 58.6c-.3 0-.5-.2-.5-.5v-1.6c0-.3.2-.5.5-.5s.5.2.5.5v1.6C76.5 58.4 76.2 58.6 76 58.6zM79.5 65.6c-.3 0-.5-.2-.5-.5v-1.6c0-.3.2-.5.5-.5s.5.2.5.5v1.6C80 65.4 79.7 65.6 79.5 65.6zM72.5 65.6c-.3 0-.5-.2-.5-.5v-1.6c0-.3.2-.5.5-.5s.5.2.5.5v1.6C73 65.4 72.7 65.6 72.5 65.6zM78.5 61h-5c-.3 0-.5-.2-.5-.5s.2-.5.5-.5h5c.3 0 .5.2.5.5S78.7 61 78.5 61zM80.5 68h-9c-.3 0-.5-.2-.5-.5s.2-.5.5-.5h9c.3 0 .5.2.5.5S80.7 68 80.5 68zM80.5 72h-9c-.3 0-.5-.2-.5-.5s.2-.5.5-.5h9c.3 0 .5.2.5.5S80.7 72 80.5 72zM77.5 76h-3c-.3 0-.5-.2-.5-.5s.2-.5.5-.5h3c.3 0 .5.2.5.5S77.7 76 77.5 76zM69.5 87h-3c-.3 0-.5-.2-.5-.5v-4c0-.3.2-.5.5-.5h3c.3 0 .5.2.5.5v4C70 86.8 69.7 87 69.5 87zM67 86h2v-3h-2V86z"/><path fill="#594454" d="M69.5 85H67c-.3 0-.5-.2-.5-.5S66.7 84 67 84h2.5c.3 0 .5.2.5.5S69.7 85 69.5 85zM69.5 80h-3c-.3 0-.5-.2-.5-.5v-4c0-.3.2-.5.5-.5h3c.3 0 .5.2.5.5v4C70 79.8 69.7 80 69.5 80zM67 79h2v-3h-2V79z"/><path fill="#594454" d="M69.5 78H67c-.3 0-.5-.2-.5-.5S66.7 77 67 77h2.5c.3 0 .5.2.5.5S69.7 78 69.5 78zM77.5 87h-3c-.3 0-.5-.2-.5-.5v-4c0-.3.2-.5.5-.5h3c.3 0 .5.2.5.5v4C78 86.8 77.7 87 77.5 87zM75 86h2v-3h-2V86zM72.5 74h-9c-.3 0-.5-.2-.5-.5v-4c0-.3.2-.5.5-.5h9c.3 0 .5.2.5.5v4C73 73.8 72.7 74 72.5 74zM64 73h8v-3h-8V73z"/><g><path fill="#594454" d="M80.5,81h-9c-0.3,0-0.5-0.2-0.5-0.5s0.2-0.5,0.5-0.5h9c0.3,0,0.5,0.2,0.5,0.5S80.7,81,80.5,81z"/></g><g><circle cx="76" cy="69.5" r=".5" fill="#594454"/></g></svg>